<?xml version="1.0" encoding="utf-8"?>
<!-- Generator: Adobe Illustrator 25.2.2, SVG Export Plug-In . SVG Version: 6.00 Build 0)  -->
<svg version="1.1" id="Ebene_1" xmlns="http://www.w3.org/2000/svg" xmlns:xlink="http://www.w3.org/1999/xlink" x="0px" y="0px"
	 viewBox="0 0 283.465 83.681" enable-background="new 0 0 283.465 83.681" xml:space="preserve">
<g>
	<path fill="#7FB4A1" d="M244.455,5.49c0.066,6.911-5.503,12.585-12.414,12.65l-6.267,0.06l-0.02-2.088
		c-0.066-6.911,5.503-12.585,12.414-12.65l6.267-0.06L244.455,5.49z"/>
	<path fill="#7FB4A1" d="M41.857,46.337H11.226c0.425,2.765,1.787,5.158,4.089,7.179c2.299,2.021,5.031,3.031,8.195,3.031
		c2.287,0,4.42-0.518,6.402-1.555c1.979-1.037,3.383-2.047,4.207-3.031l1.236-1.516l5.305,5.305
		c-0.16,0.213-0.406,0.513-0.739,0.898c-0.332,0.386-1.043,1.037-2.133,1.953c-1.09,0.919-2.247,1.73-3.47,2.434
		c-1.223,0.705-2.811,1.356-4.767,1.953c-1.953,0.6-3.968,0.898-6.042,0.898c-5.557,0-10.349-2.04-14.379-6.121
		C5.105,53.683,3.09,48.784,3.09,43.067c0-5.504,1.96-10.216,5.882-14.14c3.922-3.92,8.628-5.882,14.119-5.882
		s10.064,1.829,13.72,5.483c3.656,3.658,5.485,8.237,5.485,13.741L41.857,46.337z M23.072,30.025c-2.951,0-5.432,0.872-7.438,2.613
		c-2.009,1.742-3.358,3.994-4.049,6.76h22.694c-0.479-2.765-1.715-5.018-3.709-6.76C28.576,30.896,26.076,30.025,23.072,30.025z"/>
	<path fill="#7FB4A1" d="M53.246,57.803c-4.056-4.053-6.083-8.826-6.083-14.317s2.027-10.271,6.083-14.339
		c4.053-4.068,8.834-6.102,14.338-6.102c3.058,0,5.903,0.659,8.535,1.974c2.632,1.318,4.52,2.626,5.664,3.929l1.715,1.875
		l-5.305,5.305c-0.266-0.425-0.672-0.95-1.217-1.575s-1.728-1.47-3.548-2.533c-1.823-1.064-3.77-1.595-5.844-1.595
		c-3.324,0-6.201,1.263-8.636,3.789c-2.431,2.526-3.649,5.618-3.649,9.274c0,3.656,1.217,6.746,3.649,9.272
		c2.434,2.526,5.312,3.789,8.636,3.789c2.074,0,4.021-0.518,5.844-1.555c1.82-1.037,3.13-2.047,3.928-3.031l1.236-1.516l5.305,5.305
		c-0.16,0.213-0.399,0.513-0.718,0.898c-0.319,0.386-1.01,1.037-2.074,1.953c-1.064,0.919-2.18,1.73-3.35,2.434
		c-1.17,0.705-2.686,1.356-4.547,1.953c-1.861,0.6-3.736,0.898-5.624,0.898C62.08,63.886,57.3,61.86,53.246,57.803z"/>
	<path fill="#2D424D" d="M142.075,6.924v56.165h-8.136V6.924H142.075z"/>
	<path fill="#2D424D" d="M200.865,18.977v-8.176h7.339v13.082h8.176v7.339h-8.176v20.341c0,1.462,0.465,2.659,1.396,3.59
		c0.931,0.931,2.101,1.396,3.51,1.396c0.612,0,1.257-0.066,1.934-0.199c0.68-0.133,1.204-0.279,1.576-0.439l0.598-0.16v7.339
		c-1.622,0.532-3.536,0.798-5.743,0.798c-7.631,0-11.433-4.081-11.407-12.244V31.221h-7.379v-7.339h4.108
		C199.508,23.883,200.865,22.247,200.865,18.977z"/>
	<path fill="#2D424D" d="M233.93,23.883v39.206h-8.176V23.883H233.93z"/>
	<path fill="#2D424D" d="M260.035,63.886c-5.185,0-9.679-1.987-13.481-5.962c-3.802-3.975-5.703-8.795-5.703-14.459
		s1.901-10.482,5.703-14.459c3.802-3.974,8.296-5.962,13.481-5.962c1.462,0,2.891,0.18,4.288,0.538
		c1.394,0.36,2.578,0.798,3.548,1.318c0.971,0.517,1.842,1.05,2.613,1.595c0.771,0.545,1.316,0.976,1.635,1.295l0.558,0.598v-4.507
		h8.176v56.356h-8.176V58.582c-0.372,0.372-0.898,0.864-1.575,1.476c-0.68,0.612-2.121,1.403-4.328,2.372
		C264.569,63.4,262.322,63.886,260.035,63.886z M269.089,34.253c-2.393-2.553-5.139-3.829-8.237-3.829s-5.85,1.276-8.255,3.829
		c-2.408,2.553-3.61,5.631-3.61,9.234s1.202,6.68,3.61,9.232c2.405,2.553,5.157,3.829,8.255,3.829s5.844-1.276,8.237-3.829
		c2.393-2.553,3.59-5.63,3.59-9.232S271.482,36.805,269.089,34.253z"/>
	<polygon fill="#2D424D" points="156.833,80.239 164.973,80.239 187.824,23.883 179.249,23.883 167.802,52.479 156.355,23.883 
		147.78,23.883 163.734,63.089 	"/>
	<path fill="#2D424D" d="M126.393,34.683c-0.639-1.34-1.407-2.576-2.279-3.706l-5.985,4.626c0.549,0.711,1.034,1.489,1.436,2.333
		c3.049,6.401,0.323,14.088-6.078,17.137c-5.557,2.647-12.082,0.939-15.702-3.745l-5.985,4.626
		c5.749,7.452,16.098,10.159,24.939,5.947C126.922,57.051,131.244,44.865,126.393,34.683z"/>
	<path fill="#7FB4A1" d="M97.786,51.328c-0.549-0.711-1.034-1.489-1.436-2.333c-3.049-6.401-0.323-14.088,6.078-17.137
		c5.557-2.647,12.082-0.939,15.702,3.745l5.985-4.626c-5.749-7.452-16.098-10.159-24.939-5.947
		c-10.182,4.85-14.503,17.036-9.653,27.218c0.639,1.34,1.407,2.576,2.279,3.706L97.786,51.328z"/>
</g>
</svg>
